<svg width="26" height="22" viewBox="0 0 26 22" fill="none" xmlns="http://www.w3.org/2000/svg">
<path fill-rule="evenodd" clip-rule="evenodd" d="M1.58806 14.5531C2.60487 13.5343 3.98397 12.9619 5.42196 12.9619H14.0971C15.5351 12.9619 16.9142 13.5343 17.931 14.5531C18.9478 15.5719 19.5191 16.9537 19.5191 18.3945V20.5675C19.5191 21.1675 19.0336 21.654 18.4347 21.654C17.8358 21.654 17.3503 21.1675 17.3503 20.5675V18.3945C17.3503 17.53 17.0075 16.7009 16.3974 16.0896C15.7874 15.4783 14.9599 15.1349 14.0971 15.1349H5.42196C4.55917 15.1349 3.73171 15.4783 3.12162 16.0896C2.51153 16.7009 2.16878 17.53 2.16878 18.3945V20.5675C2.16878 21.1675 1.68329 21.654 1.08439 21.654C0.485499 21.654 0 21.1675 0 20.5675V18.3945C0 16.9537 0.571241 15.5719 1.58806 14.5531Z" fill="#AEA4D9"/>
<path fill-rule="evenodd" clip-rule="evenodd" d="M9.75956 2.1654C7.96569 2.1654 6.51147 3.61962 6.51147 5.41349C6.51147 7.20736 7.96569 8.66158 9.75956 8.66158C11.5534 8.66158 13.0077 7.20736 13.0077 5.41349C13.0077 3.61962 11.5534 2.1654 9.75956 2.1654ZM4.34607 5.41349C4.34607 2.4237 6.76977 0 9.75956 0C12.7493 0 15.173 2.4237 15.173 5.41349C15.173 8.40328 12.7493 10.827 9.75956 10.827C6.76977 10.827 4.34607 8.40328 4.34607 5.41349Z" fill="#AEA4D9"/>
<path fill-rule="evenodd" clip-rule="evenodd" d="M17.3079 9.72129C17.3079 9.1107 17.7943 8.61572 18.3944 8.61572H24.9134C25.5135 8.61572 25.9999 9.1107 25.9999 9.72129C25.9999 10.3319 25.5135 10.8269 24.9134 10.8269H18.3944C17.7943 10.8269 17.3079 10.3319 17.3079 9.72129Z" fill="#AEA4D9"/>
<path fill-rule="evenodd" clip-rule="evenodd" d="M21.654 5.41357C22.2435 5.41357 22.7214 5.90002 22.7214 6.50008V13.0191C22.7214 13.6192 22.2435 14.1057 21.654 14.1057C21.0645 14.1057 20.5865 13.6192 20.5865 13.0191V6.50008C20.5865 5.90002 21.0645 5.41357 21.654 5.41357Z" fill="#AEA4D9"/>
</svg>
