<svg width="28" height="22" viewBox="0 0 28 22" fill="none" xmlns="http://www.w3.org/2000/svg">
<path d="M15.62 15.6012C15.62 15.5366 15.6231 15.4728 15.6249 15.4086H3.29572C1.47845 15.4086 0 16.887 0 18.7043C0 20.5216 1.47845 22 3.29572 22H20.3729C17.6261 21.1692 15.62 18.6155 15.62 15.6012ZM6.97665 19.5603H3.98054C3.50853 19.5603 3.12451 19.1763 3.12451 18.7043C3.12451 18.2323 3.50853 17.8483 3.98054 17.8483H6.97665C7.44867 17.8483 7.83268 18.2323 7.83268 18.7043C7.83268 19.1763 7.44867 19.5603 6.97665 19.5603Z" fill="#AEA4D9"/>
<path d="M3.29572 14.2957H15.7489C16.3579 11.2328 19.0654 8.91662 22.3045 8.91662C23.1211 8.91662 23.9037 9.06446 24.6277 9.33368C24.0544 8.35969 22.9956 7.70422 21.786 7.70422H3.29572C1.47845 7.70422 0 9.18268 0 10.9999C0 12.8172 1.47845 14.2957 3.29572 14.2957ZM3.98054 10.1439H6.97665C7.44867 10.1439 7.83268 10.5279 7.83268 10.9999C7.83268 11.472 7.44867 11.856 6.97665 11.856H3.98054C3.50853 11.856 3.12451 11.472 3.12451 10.9999C3.12451 10.5279 3.50853 10.1439 3.98054 10.1439Z" fill="#AEA4D9"/>
<path d="M3.29572 6.59144H21.786C23.6032 6.59144 25.0817 5.11299 25.0817 3.29572C25.0817 1.47845 23.6032 0 21.786 0H3.29572C1.47845 0 0 1.47845 0 3.29572C0 5.11299 1.47845 6.59144 3.29572 6.59144ZM20.3307 2.20428C20.9325 2.20428 21.4222 2.69393 21.4222 3.29572C21.4222 3.89751 20.9325 4.38716 20.3307 4.38716C19.7289 4.38716 19.2393 3.89751 19.2393 3.29572C19.2393 2.69393 19.7289 2.20428 20.3307 2.20428ZM3.98054 2.43969H6.97665C7.44867 2.43969 7.83268 2.8237 7.83268 3.29572C7.83268 3.76773 7.44867 4.15175 6.97665 4.15175H3.98054C3.50853 4.15175 3.12451 3.76773 3.12451 3.29572C3.12451 2.8237 3.50853 2.43969 3.98054 2.43969Z" fill="#AEA4D9"/>
<path d="M22.3045 10.7789C19.6412 10.7789 17.4822 12.9379 17.4822 15.6012C17.4822 18.2645 19.6412 20.4235 22.3045 20.4235C24.9677 20.4235 27.1267 18.2645 27.1267 15.6012C27.1267 12.9379 24.9677 10.7789 22.3045 10.7789ZM24.8808 14.5796L21.8287 17.6316C21.7641 17.6963 21.6781 17.732 21.5866 17.732C21.4951 17.732 21.409 17.6963 21.3444 17.6316L19.8138 16.101C19.7491 16.0364 19.7135 15.9504 19.7135 15.859C19.7135 15.7675 19.7491 15.6815 19.8138 15.6168L20.1164 15.3142C20.181 15.2496 20.267 15.2139 20.3585 15.2139C20.45 15.2139 20.536 15.2495 20.6006 15.3141L21.5866 16.3L24.094 13.7928C24.1585 13.7281 24.2446 13.6924 24.3361 13.6924C24.4276 13.6924 24.5136 13.7281 24.5782 13.7928L24.8809 14.0954C24.9455 14.1599 24.9812 14.2459 24.9812 14.3375C24.9811 14.429 24.9455 14.515 24.8808 14.5796Z" fill="#AEA4D9"/>
</svg>
