<svg width="23" height="23" viewBox="0 0 23 23" fill="none" xmlns="http://www.w3.org/2000/svg">
<path d="M21.4587 5.74993L18.79 4.20911L17.2496 1.54083H14.1684L11.4997 0L8.83106 1.54083H5.74987L4.20904 4.20951L1.54083 5.74993V8.83112L0 11.4998L1.54083 14.1685V17.2497L4.20951 18.7905L5.75033 21.4592H8.83152L11.4998 22.9996L14.1685 21.4588H17.2497L18.7905 18.7901L21.4592 17.2493V14.1681L23 11.4994L21.4592 8.83072V5.74993H21.4587ZM10.4618 16.2066C10.2474 16.421 9.96491 16.5252 9.68368 16.5213C9.40238 16.5253 9.11995 16.421 8.90553 16.2066L5.54225 12.8433C5.12093 12.422 5.12093 11.7385 5.54225 11.3172L6.4326 10.4268C6.85392 10.0055 7.53739 10.0055 7.9587 10.4268L9.68368 12.1518L15.0405 6.79458C15.4618 6.37327 16.1453 6.37327 16.5666 6.79458L17.457 7.68494C17.8783 8.10625 17.8783 8.78972 17.457 9.21103L10.4618 16.2066Z" fill="#AEA4D9"/>
</svg>
