<svg width="23" height="25" viewBox="0 0 23 25" fill="none" xmlns="http://www.w3.org/2000/svg">
<path d="M11.2108 12.0995C14.2758 12.0995 16.7605 9.61481 16.7605 6.54976C16.7605 3.48472 14.2758 1 11.2108 1C8.14572 1 5.66101 3.48472 5.66101 6.54976C5.66101 9.61481 8.14572 12.0995 11.2108 12.0995Z" stroke="#AEA4D9" stroke-width="2" stroke-linecap="round" stroke-linejoin="round"/>
<path d="M21.6343 16.9279L15.9846 22.5775C15.4186 23.1325 13.7647 23.3988 13.3762 23.0214C13.2287 22.5851 13.193 22.1186 13.2725 21.6648C13.352 21.211 13.5442 20.7845 13.8313 20.4242L19.481 14.7635C19.7749 14.5156 20.1512 14.3875 20.5353 14.4043C20.9194 14.4211 21.2831 14.5816 21.5541 14.8542C21.8253 15.1266 21.984 15.4913 21.9989 15.8754C22.0137 16.2596 21.8836 16.6352 21.6343 16.9279Z" stroke="#AEA4D9" stroke-width="2" stroke-linecap="round" stroke-linejoin="round"/>
<path d="M1 23.1994C1.63309 21.0163 2.94014 19.0893 4.7343 17.6939C6.52846 16.2984 8.71789 15.5059 10.9896 15.4297" stroke="#AEA4D9" stroke-width="2" stroke-linecap="round" stroke-linejoin="round"/>
</svg>
