<svg width="25" height="21" viewBox="0 0 25 21" fill="none" xmlns="http://www.w3.org/2000/svg">
<path d="M17.7273 19.8181V17.7272C17.7273 16.6181 17.2867 15.5545 16.5025 14.7702C15.7182 13.986 14.6545 13.5454 13.5455 13.5454H5.18182C4.07273 13.5454 3.00907 13.986 2.22483 14.7702C1.44058 15.5545 1 16.6181 1 17.7272V19.8181" stroke="#AEA4D9" stroke-width="2" stroke-linecap="round" stroke-linejoin="round"/>
<path d="M9.36358 9.36364C11.6731 9.36364 13.5454 7.49138 13.5454 5.18182C13.5454 2.87226 11.6731 1 9.36358 1C7.05403 1 5.18176 2.87226 5.18176 5.18182C5.18176 7.49138 7.05403 9.36364 9.36358 9.36364Z" stroke="#AEA4D9" stroke-width="2" stroke-linecap="round" stroke-linejoin="round"/>
<path d="M24 19.8182V17.7273C23.9993 16.8007 23.6909 15.9007 23.1233 15.1684C22.5556 14.4361 21.7608 13.913 20.8636 13.6814" stroke="#AEA4D9" stroke-width="2" stroke-linecap="round" stroke-linejoin="round"/>
<path d="M16.6818 1.13586C17.5813 1.36618 18.3786 1.88932 18.9479 2.62283C19.5173 3.35633 19.8263 4.25846 19.8263 5.187C19.8263 6.11554 19.5173 7.01768 18.9479 7.75118C18.3786 8.48468 17.5813 9.00783 16.6818 9.23814" stroke="#AEA4D9" stroke-width="2" stroke-linecap="round" stroke-linejoin="round"/>
</svg>
