<svg width="20" height="29" viewBox="0 0 20 29" fill="none" xmlns="http://www.w3.org/2000/svg">
<path d="M19.9669 27.4474L16.4863 17.5925C18.6319 15.7575 19.9975 13.0367 19.9975 9.9984C19.9975 4.48517 15.5124 0 9.99908 0C4.48579 0 0.000674403 4.48517 0.000674403 9.9984C0.000674403 13.0356 1.3675 15.7563 3.51188 17.5925L0.033592 27.4474C-0.0464137 27.6721 0.0194764 27.925 0.199448 28.0838C0.31 28.1802 0.448839 28.2308 0.58878 28.2308C0.678159 28.2308 0.768752 28.2097 0.852286 28.1685L5.22101 25.9841L7.86765 28.1026C8.02645 28.2296 8.23818 28.2638 8.43111 28.1979C8.62283 28.1297 8.76635 27.9697 8.80985 27.7709L9.62265 24.1126L11.2236 27.8732C11.2953 28.0438 11.4424 28.1685 11.6212 28.2131C11.7976 28.2614 11.9894 28.2167 12.1329 28.1026L14.7795 25.9841L19.1482 28.1685C19.2318 28.2097 19.3212 28.2308 19.4117 28.2308C19.5517 28.2308 19.6905 28.1803 19.8011 28.0838C19.9811 27.925 20.0457 27.6721 19.9669 27.4474ZM12.8539 18.3371L11.0319 18.7547C10.6919 18.7946 10.3484 18.8205 9.99908 18.8205C5.13395 18.8205 1.17694 14.8635 1.17694 9.9984C1.17694 5.13327 5.13395 1.17627 9.99908 1.17627C14.8642 1.17627 18.8212 5.13327 18.8212 9.9984C18.8212 13.8637 16.3205 17.1479 12.8539 18.3371Z" fill="#AEA4D9"/>
<path d="M9.99909 3.52881C6.43142 3.52881 3.52954 6.4319 3.52954 9.99836C3.52954 13.5648 6.43142 16.4679 9.99909 16.4679C13.5668 16.4679 16.4686 13.5648 16.4686 9.99836C16.4686 6.4319 13.5668 3.52881 9.99909 3.52881ZM13.942 8.06102L9.23691 12.7661C9.12162 12.8814 8.97109 12.9379 8.82051 12.9379C8.66992 12.9379 8.5194 12.8803 8.4041 12.7661L6.05151 10.4136C5.82451 10.1842 5.82451 9.81249 6.05389 9.5819C6.28326 9.35252 6.65616 9.35252 6.88554 9.5819L8.82172 11.5181L13.1104 7.22936C13.3398 6.99999 13.7127 6.99999 13.9421 7.22936C14.1714 7.4588 14.1714 7.83164 13.942 8.06102Z" fill="#AEA4D9"/>
</svg>
