<svg width="100" height="100" viewBox="0 0 100 100" fill="none" xmlns="http://www.w3.org/2000/svg">
<g clip-path="url(#clip0_321_6)">
<rect width="100" height="100" fill="white"/>
<rect width="100" height="100" fill="#100B21"/>
<path d="M41.6145 72.6696H24.9824C23.9375 72.6696 23.1247 71.8278 23.1247 70.8119C23.1247 69.7669 23.9665 68.9542 24.9824 68.9542H41.6145C45.1847 68.9542 48.0583 66.0516 48.0583 62.5104C48.0583 58.9401 45.1557 56.0665 41.6145 56.0665L33.313 56.1536C27.6819 56.1536 23.0957 51.5965 23.0957 45.9654C23.0957 40.3343 27.6528 35.7772 33.2839 35.7772L39.8148 35.7482C40.7437 26.3436 48.6678 19 58.2755 19H66.6061C72.2372 19 76.7943 23.5861 76.7943 29.1882C76.7943 34.7903 72.2081 39.3764 66.6061 39.3764L43.6173 39.4345C44.5751 46.6911 50.7868 52.2931 58.2755 52.2931H74.9366C75.9816 52.2931 76.7943 53.1349 76.7943 54.1508C76.7943 55.1958 75.9525 56.0085 74.9366 56.0085H58.2755C48.7259 56.0085 40.8308 48.7229 39.8729 39.4345L33.313 39.4635C29.7427 39.4635 26.8401 42.3661 26.8401 45.9073C26.8401 49.4485 29.7427 52.3512 33.2839 52.3512L41.5854 52.2641C47.2165 52.2641 51.8027 56.8502 51.8027 62.4523C51.8317 68.1124 47.2456 72.6696 41.6145 72.6696ZM58.2755 22.7444C50.7287 22.7444 44.5171 28.4045 43.6173 35.7191L66.6061 35.6611C70.1763 35.6611 73.0789 32.7584 73.0789 29.2172C73.0789 25.676 70.1763 22.7734 66.6351 22.7734H58.2755V22.7444Z" fill="white"/>
<path d="M74.0366 54.1506C71.6854 56.5018 70.5824 61.1169 70.4954 64.3388C73.7173 60.0139 77.868 56.2695 82.9186 54.1506C77.868 52.1188 73.8914 48.1422 70.4954 43.9624C70.7566 47.4165 71.5984 51.5963 74.0366 54.1506Z" fill="white"/>
<path d="M25.882 70.8118C28.2332 73.1629 29.3362 77.7781 29.4232 81C26.2304 76.6751 22.0506 72.9016 17 70.8118C22.0506 68.7799 26.0272 64.8033 29.4232 60.6235C29.162 64.0486 28.3202 68.2284 25.882 70.8118Z" fill="white"/>
</g>
<defs>
<clipPath id="clip0_321_6">
<rect width="100" height="100" fill="white"/>
</clipPath>
</defs>
</svg>
