<svg width="35" height="34" viewBox="0 0 35 34" fill="none" xmlns="http://www.w3.org/2000/svg">
<path fill-rule="evenodd" clip-rule="evenodd" d="M0 7.65C0 3.42502 3.35787 0 7.50001 0H16.6667C20.3485 0 23.3334 3.04446 23.3334 6.8V8.5C23.3334 9.43888 22.5872 10.2 21.6667 10.2C20.7462 10.2 20 9.43888 20 8.5V6.8C20 4.92223 18.5077 3.4 16.6667 3.4H7.50001C5.19882 3.4 3.33334 5.30279 3.33334 7.65V26.35C3.33334 28.6972 5.19882 30.6 7.50001 30.6H16.6667C18.5077 30.6 20 29.0778 20 27.2V25.5C20 24.5611 20.7462 23.8 21.6667 23.8C22.5872 23.8 23.3334 24.5611 23.3334 25.5V27.2C23.3334 30.9555 20.3485 34 16.6667 34H7.50001C3.35787 34 0 30.575 0 26.35V7.65ZM27.1549 10.6979C27.8057 10.034 28.861 10.034 29.5119 10.6979L34.5119 15.7979C35.1627 16.4618 35.1627 17.5382 34.5119 18.2021L29.5119 23.3021C28.861 23.9659 27.8057 23.9659 27.1549 23.3021C26.504 22.6382 26.504 21.5618 27.1549 20.8979L29.3097 18.7H15C14.0795 18.7 13.3333 17.9389 13.3333 17C13.3333 16.0611 14.0795 15.3 15 15.3H29.3097L27.1549 13.1021C26.504 12.4382 26.504 11.3618 27.1549 10.6979Z" fill="#AEA4D9"/>
</svg>
