<svg width="208" height="51" viewBox="0 0 208 51" fill="none" xmlns="http://www.w3.org/2000/svg">
<path d="M20.2439 44.14H6.56501C5.7056 44.14 5.03718 43.4477 5.03718 42.6122C5.03718 41.7528 5.72948 41.0844 6.56501 41.0844H20.2439C23.1802 41.0844 25.5436 38.6971 25.5436 35.7847C25.5436 32.8484 23.1563 30.485 20.2439 30.485L13.4164 30.5567C8.78514 30.5567 5.01331 26.8087 5.01331 22.1774C5.01331 17.5462 8.76127 13.7982 13.3925 13.7982L18.7638 13.7744C19.5277 6.03971 26.0449 0 33.9466 0H40.798C45.4293 0 49.1772 3.77184 49.1772 8.37921C49.1772 12.9866 45.4054 16.7584 40.798 16.7584L21.8911 16.8062C22.6789 22.7743 27.7876 27.3816 33.9466 27.3816H47.6494C48.5088 27.3816 49.1772 28.0739 49.1772 28.9095C49.1772 29.7689 48.4849 30.4373 47.6494 30.4373H33.9466C26.0926 30.4373 19.5993 24.4453 18.8115 16.8062L13.4164 16.83C10.4801 16.83 8.09284 19.2173 8.09284 22.1297C8.09284 25.0421 10.4801 27.4294 13.3925 27.4294L20.22 27.3578C24.8513 27.3578 28.6231 31.1296 28.6231 35.737C28.647 40.3921 24.8751 44.14 20.2439 44.14ZM33.9466 3.07954C27.7398 3.07954 22.6311 7.73465 21.8911 13.7505L40.798 13.7027C43.7343 13.7027 46.1216 11.3155 46.1216 8.40308C46.1216 5.49065 43.7343 3.10341 40.8219 3.10341H33.9466V3.07954Z" fill="white"/>
<path d="M46.9094 28.9095C44.9757 30.8432 44.0686 34.6389 43.9969 37.2887C46.6468 33.7317 50.0605 30.6522 54.2143 28.9095C50.0605 27.2384 46.79 23.9679 43.9969 20.5303C44.2118 23.3711 44.9041 26.8087 46.9094 28.9095Z" fill="white"/>
<path d="M7.30495 42.6124C9.23861 44.546 10.1458 48.3417 10.2174 50.9916C7.59142 47.4346 4.15379 44.3312 0 42.6124C4.15379 40.9413 7.42431 37.6708 10.2174 34.2332C10.0025 37.0501 9.31023 40.4877 7.30495 42.6124Z" fill="white"/>
<path d="M75.198 46.2022C73.4075 46.2022 71.8081 45.8919 70.3519 45.2712C68.8956 44.6505 67.6543 43.7911 66.6039 42.7169C65.5774 41.6426 64.7657 40.3774 64.1928 38.945C63.6198 37.5127 63.3334 36.0087 63.3334 34.3854C63.3334 32.786 63.6198 31.2581 64.1928 29.8258C64.7657 28.3934 65.5535 27.1043 66.6039 26.0301C67.6304 24.9319 68.8956 24.0725 70.3519 23.4519C71.8081 22.8312 73.4314 22.5208 75.2457 22.5208C77.0123 22.5208 78.6356 22.8312 80.0679 23.4757C81.5003 24.1203 82.7416 24.9797 83.7681 26.0301C84.7947 27.1043 85.5586 28.3218 86.1076 29.7542C86.6567 31.1626 86.9193 32.6427 86.9193 34.1944C86.9193 34.5525 86.8954 34.8629 86.8715 35.1732C86.8477 35.4835 86.8238 35.7461 86.7761 35.9371H68.4659C68.5614 36.9636 68.8002 37.8708 69.1821 38.6824C69.5641 39.4941 70.0893 40.2103 70.7099 40.8071C71.3306 41.4039 72.0468 41.8575 72.8585 42.1917C73.6701 42.502 74.5057 42.6691 75.3651 42.6691C76.0096 42.6691 76.6303 42.5975 77.2749 42.4304C77.8955 42.2633 78.4685 42.0484 78.9937 41.7381C79.5189 41.4278 79.9724 41.0697 80.4021 40.6161C80.808 40.1864 81.1422 39.709 81.357 39.1838L85.4631 40.3535C84.6753 42.0723 83.3623 43.4808 81.548 44.5789C79.7337 45.6771 77.6091 46.2022 75.198 46.2022ZM82.1448 32.6189C82.0493 31.664 81.8106 30.7568 81.4286 29.9451C81.0467 29.1335 80.5215 28.4412 79.9247 27.8683C79.304 27.2953 78.5878 26.8656 77.7762 26.5314C76.9645 26.2211 76.1051 26.0539 75.198 26.0539C74.2908 26.0539 73.4314 26.2211 72.6436 26.5314C71.8319 26.8417 71.1396 27.2953 70.519 27.8683C69.8983 28.4412 69.4208 29.1335 69.0389 29.9451C68.6569 30.7568 68.4182 31.6401 68.3466 32.6189H82.1448Z" fill="#FE664F"/>
<path d="M99.1419 46.2022C97.3037 46.2022 95.4655 45.8919 93.6512 45.295C91.8369 44.6982 90.2613 43.8388 88.9484 42.7407L90.882 39.685C92.2428 40.6877 93.6035 41.4277 94.9403 41.929C96.2772 42.4304 97.6618 42.693 99.0464 42.693C100.479 42.693 101.601 42.4065 102.436 41.8574C103.272 41.3084 103.678 40.5206 103.678 39.4941C103.678 38.5392 103.2 37.823 102.269 37.3933C101.338 36.9636 99.8819 36.4861 97.9005 35.9609C96.4682 35.579 95.2507 35.2209 94.2242 34.8628C93.1977 34.5047 92.3621 34.0989 91.7414 33.6453C91.0969 33.1679 90.6433 32.6427 90.333 32.022C90.0465 31.4013 89.9033 30.6613 89.9033 29.8019C89.9033 28.6321 90.1181 27.6056 90.5717 26.6985C91.0253 25.7913 91.6459 25.0274 92.4576 24.4067C93.2693 23.786 94.2003 23.3086 95.2745 22.9744C96.3488 22.664 97.5185 22.4969 98.7838 22.4969C100.503 22.4969 102.102 22.7595 103.582 23.2847C105.062 23.8099 106.399 24.5738 107.569 25.5526L105.516 28.4411C103.391 26.7462 101.123 25.9107 98.736 25.9107C97.5186 25.9107 96.492 26.1733 95.6565 26.6746C94.821 27.1759 94.4151 27.9876 94.4151 29.1096C94.4151 29.587 94.5106 29.969 94.6777 30.2793C94.8448 30.5897 95.1313 30.8761 95.5371 31.1148C95.9191 31.3536 96.4443 31.5684 97.065 31.7594C97.6857 31.9504 98.4734 32.1652 99.4045 32.404C100.956 32.7859 102.293 33.1679 103.415 33.5498C104.537 33.9318 105.468 34.3854 106.184 34.8867C106.924 35.388 107.449 35.9848 107.808 36.6771C108.166 37.3694 108.333 38.1811 108.333 39.136C108.333 41.3322 107.497 43.051 105.874 44.3163C104.227 45.5815 101.983 46.2022 99.1419 46.2022Z" fill="#FE664F"/>
<path d="M118.598 46.2022C117.5 46.2022 116.473 46.0112 115.518 45.6531C114.563 45.295 113.752 44.7937 113.059 44.1492C112.367 43.5046 111.842 42.7407 111.436 41.8813C111.054 40.998 110.839 40.067 110.839 39.0405C110.839 37.9662 111.078 36.9875 111.532 36.1042C112.009 35.2209 112.654 34.4809 113.513 33.8363C114.372 33.1917 115.399 32.6904 116.569 32.3562C117.738 31.9981 119.051 31.831 120.484 31.831C121.558 31.831 122.632 31.9265 123.683 32.1175C124.733 32.3085 125.688 32.5711 126.524 32.8814V31.3058C126.524 29.6109 126.046 28.2979 125.091 27.343C124.136 26.3881 122.752 25.9107 120.937 25.9107C119.72 25.9107 118.502 26.1255 117.333 26.5791C116.163 27.0327 114.945 27.6772 113.68 28.5366L112.2 25.481C115.136 23.4996 118.216 22.4969 121.391 22.4969C124.542 22.4969 126.977 23.3086 128.744 24.908C130.486 26.5075 131.37 28.8231 131.37 31.8071V40.067C131.37 41.0935 131.799 41.6187 132.635 41.6426V45.7486C132.157 45.8441 131.775 45.8919 131.441 45.9157C131.107 45.9396 130.773 45.9635 130.462 45.9635C129.531 45.9635 128.815 45.7247 128.29 45.2712C127.789 44.7937 127.455 44.1969 127.359 43.4807L127.24 42.0484C126.213 43.3853 124.948 44.4118 123.468 45.1279C121.94 45.8441 120.317 46.2022 118.598 46.2022ZM119.911 42.6691C121.081 42.6691 122.179 42.4542 123.205 42.0245C124.232 41.5948 125.043 41.0219 125.64 40.258C126.261 39.7328 126.547 39.1837 126.547 38.5869V35.579C125.736 35.2686 124.852 35.006 123.945 34.8389C123.038 34.6718 122.131 34.5763 121.248 34.5763C119.529 34.5763 118.12 34.9583 117.022 35.6983C115.924 36.4384 115.375 37.4172 115.375 38.6585C115.375 39.8044 115.805 40.7593 116.64 41.5232C117.524 42.2871 118.598 42.6691 119.911 42.6691Z" fill="#FE664F"/>
<path d="M146.505 46.2023C144.953 46.2023 143.521 45.8919 142.231 45.2713C140.919 44.6506 139.773 43.7912 138.818 42.7169C137.863 41.6427 137.099 40.3774 136.574 38.9451C136.025 37.5127 135.762 35.961 135.762 34.29C135.762 32.6905 136.025 31.1866 136.526 29.7542C137.027 28.3457 137.743 27.1044 138.675 26.0062C139.582 24.932 140.68 24.0726 141.921 23.4519C143.163 22.8312 144.523 22.5209 146.003 22.5209C147.842 22.5209 149.465 22.9745 150.849 23.8577C152.258 24.741 153.332 25.8869 154.12 27.2476V13.8552H158.918V40.091C158.918 40.64 159.014 41.0459 159.205 41.2607C159.396 41.4994 159.73 41.6188 160.231 41.6427V45.7487C159.73 45.8442 159.324 45.8919 159.038 45.9158C158.727 45.9397 158.465 45.9636 158.274 45.9636C157.319 45.9636 156.531 45.7248 155.91 45.2235C155.29 44.7222 154.955 44.0776 154.908 43.2899L154.812 41.5949C153.977 43.0273 152.807 44.1493 151.351 44.9609C149.895 45.7965 148.295 46.2023 146.505 46.2023ZM147.698 42.0962C148.391 42.0962 149.107 41.9769 149.799 41.7381C150.491 41.4994 151.136 41.1891 151.733 40.7833C152.306 40.3774 152.807 39.9 153.237 39.3509C153.666 38.8018 153.953 38.205 154.144 37.5605V31.5685C153.881 30.8285 153.499 30.16 153.022 29.5632C152.544 28.9425 151.995 28.4174 151.375 27.9877C150.754 27.558 150.109 27.2237 149.417 26.985C148.725 26.7463 148.032 26.6269 147.34 26.6269C146.385 26.6269 145.502 26.8418 144.69 27.2715C143.879 27.7012 143.186 28.298 142.613 29.0142C142.041 29.7542 141.563 30.5659 141.229 31.4969C140.895 32.4279 140.728 33.3828 140.728 34.3855C140.728 35.4358 140.919 36.4146 141.277 37.3695C141.635 38.3005 142.136 39.1122 142.781 39.8284C143.425 40.5207 144.165 41.0936 145.001 41.4994C145.836 41.9053 146.72 42.0962 147.698 42.0962Z" fill="#FE664F"/>
<path d="M185.56 45.7726H180.761V32.9531C180.761 30.8523 180.38 29.3006 179.639 28.298C178.899 27.2954 177.825 26.794 176.417 26.794C175.748 26.794 175.08 26.9134 174.411 27.176C173.743 27.4386 173.098 27.8205 172.502 28.298C171.905 28.7754 171.38 29.3484 170.902 29.9929C170.425 30.6375 170.091 31.3775 169.852 32.1653V45.7726H165.053V13.8552H169.852V27.4863C170.735 25.9108 171.905 24.6933 173.409 23.81C174.913 22.9267 176.56 22.497 178.327 22.497C179.759 22.497 180.929 22.7596 181.836 23.2609C182.743 23.7622 183.483 24.4545 184.032 25.2901C184.581 26.1256 184.963 27.1282 185.202 28.2503C185.417 29.3723 185.536 30.5659 185.536 31.8072V45.7726H185.56Z" fill="#FE664F"/>
<path d="M191.146 19.1549V13.8552H195.944V19.1549H191.146ZM191.146 45.7726V22.9028H195.944V45.7726H191.146Z" fill="#FE664F"/>
<path d="M204.156 36.2238C203.727 36.2238 203.273 36.1522 202.843 35.9851C202.414 35.818 202.008 35.6031 201.674 35.2928C201.316 34.9824 201.053 34.6244 200.838 34.1708C200.623 33.7411 200.528 33.2398 200.528 32.6668C200.528 31.9984 200.671 31.4255 200.981 30.948C201.268 30.4706 201.674 30.1125 202.127 29.8738L202.748 30.7809C202.533 30.8764 202.342 31.0196 202.199 31.1629C202.056 31.3061 201.936 31.4732 201.841 31.6403C201.745 31.8074 201.698 31.9984 201.65 32.1655C201.602 32.3565 201.602 32.5236 201.602 32.6907C201.602 33.0727 201.674 33.4069 201.841 33.6933C201.984 33.9798 202.199 34.2185 202.461 34.4095C202.724 34.6005 203.011 34.7437 203.321 34.8631C203.631 34.9586 203.965 35.0063 204.276 35.0063C204.634 35.0063 204.968 34.9586 205.302 34.8392C205.636 34.7199 205.923 34.5527 206.162 34.3379C206.4 34.123 206.615 33.8843 206.758 33.5978C206.902 33.3114 206.973 33.001 206.973 32.643C206.973 32.4758 206.949 32.2849 206.902 32.0939C206.854 31.9029 206.782 31.7119 206.687 31.5448C206.591 31.3777 206.472 31.2106 206.305 31.0674C206.162 30.9241 205.971 30.8048 205.756 30.7093L206.305 29.7544C206.591 29.8738 206.83 30.0409 207.021 30.2557C207.236 30.4706 207.403 30.7093 207.546 30.9719C207.689 31.2345 207.809 31.521 207.88 31.8313C207.952 32.1416 208 32.4281 208 32.7146C208 33.2398 207.88 33.6933 207.666 34.123C207.451 34.5527 207.164 34.9108 206.806 35.2212C206.448 35.5315 206.042 35.7702 205.589 35.9373C205.087 36.1283 204.634 36.2238 204.156 36.2238Z" fill="white"/>
<path d="M207.928 25.7197C207.928 26.2449 207.833 26.7224 207.618 27.1521C207.403 27.5818 207.141 27.9638 206.782 28.2502C206.424 28.5606 206.042 28.7993 205.589 28.9664C205.135 29.1335 204.682 29.229 204.228 29.229C203.751 29.229 203.273 29.1335 202.82 28.9664C202.366 28.7993 201.984 28.5367 201.626 28.2264C201.292 27.916 201.005 27.5341 200.814 27.1043C200.623 26.6746 200.504 26.1972 200.504 25.6959C200.504 25.1707 200.623 24.6932 200.838 24.2635C201.053 23.8338 201.34 23.4757 201.698 23.1654C202.056 22.8551 202.438 22.6163 202.891 22.4492C203.345 22.2821 203.798 22.1866 204.252 22.1866C204.729 22.1866 205.207 22.2821 205.66 22.4492C206.114 22.6163 206.496 22.8789 206.83 23.1893C207.164 23.4996 207.451 23.8816 207.642 24.3113C207.833 24.741 207.928 25.2184 207.928 25.7197ZM204.204 28.0592C204.538 28.0592 204.873 28.0115 205.207 27.8921C205.541 27.7728 205.828 27.6295 206.066 27.4147C206.305 27.1998 206.52 26.9611 206.663 26.6746C206.806 26.3882 206.878 26.054 206.878 25.6959C206.878 25.3139 206.806 25.0036 206.639 24.7171C206.496 24.4306 206.281 24.1919 206.019 24.0009C205.756 23.81 205.469 23.6429 205.159 23.5474C204.849 23.4519 204.515 23.4041 204.18 23.4041C203.822 23.4041 203.488 23.4519 203.178 23.5712C202.867 23.6906 202.581 23.8338 202.342 24.0487C202.103 24.2635 201.912 24.5023 201.745 24.7887C201.602 25.0752 201.531 25.3855 201.531 25.7436C201.531 26.1256 201.602 26.4359 201.769 26.7463C201.912 27.0327 202.127 27.2715 202.366 27.4863C202.605 27.6773 202.891 27.8444 203.225 27.9399C203.56 27.9876 203.87 28.0592 204.204 28.0592Z" fill="white"/>
<path d="M207.88 14.834H202.605L206.591 17.0064V17.651L202.605 19.8472H207.88V20.9931H200.552V19.7517L205.016 17.3406L200.528 14.9056V13.6643H207.857V14.834H207.88Z" fill="white"/>
<path d="M200.503 38.5672V45.9438H207.879V38.5672H200.503Z" fill="white"/>
<path d="M72.7589 14.577C72.7589 15.0628 72.6582 15.4977 72.457 15.8819C72.2669 16.266 72.0042 16.5936 71.6688 16.8648C71.3445 17.1246 70.9588 17.328 70.5116 17.4748C70.0644 17.6104 69.5892 17.6782 69.0861 17.6782H63.4009V5.64623H69.5389C69.9526 5.64623 70.3271 5.73661 70.6625 5.91738C70.9979 6.09814 71.283 6.33539 71.5178 6.62912C71.7526 6.91156 71.9315 7.23919 72.0545 7.61202C72.1887 7.97354 72.2557 8.34071 72.2557 8.71353C72.2557 9.30101 72.1048 9.85459 71.8029 10.3743C71.5122 10.8827 71.093 11.2611 70.5451 11.5097C71.2271 11.713 71.7638 12.0859 72.1551 12.6282C72.5576 13.1591 72.7589 13.8088 72.7589 14.577ZM70.8302 14.2211C70.8302 13.9726 70.7855 13.7353 70.6961 13.5094C70.6178 13.2834 70.506 13.0857 70.3607 12.9162C70.2265 12.7468 70.0588 12.6112 69.8575 12.5095C69.6563 12.4078 69.4383 12.357 69.2035 12.357H65.2792V16.0344H69.0861C69.3321 16.0344 69.5613 15.9892 69.7737 15.8988C69.9861 15.7971 70.1706 15.6672 70.3271 15.509C70.4836 15.3396 70.6066 15.1475 70.6961 14.9329C70.7855 14.7069 70.8302 14.4697 70.8302 14.2211ZM65.2792 7.29003V10.8318H68.7339C68.9687 10.8318 69.1811 10.7866 69.3712 10.6963C69.5724 10.6059 69.7457 10.4873 69.8911 10.3404C70.0476 10.1822 70.165 9.99581 70.2433 9.78116C70.3327 9.5665 70.3774 9.32925 70.3774 9.06941C70.3774 8.54972 70.2321 8.12606 69.9414 7.79843C69.6507 7.4595 69.2818 7.29003 68.8345 7.29003H65.2792Z" fill="#00FDFA"/>
<path d="M79.6818 16.0513C80.3079 16.0513 80.8278 15.9271 81.2415 15.6785C81.6552 15.43 81.985 15.108 82.2309 14.7126C82.4881 14.3058 82.667 13.8483 82.7676 13.3399C82.8794 12.8202 82.9353 12.2892 82.9353 11.7469V5.64623H84.8304V11.7469C84.8304 12.5717 84.7354 13.3512 84.5453 14.0855C84.3552 14.8086 84.0534 15.4469 83.6397 16.0005C83.226 16.5428 82.6893 16.9721 82.0297 17.2884C81.3812 17.6047 80.5986 17.7629 79.6818 17.7629C78.7315 17.7629 77.9265 17.5991 77.2669 17.2715C76.6184 16.9325 76.0929 16.4863 75.6904 15.9327C75.2879 15.3678 74.9972 14.7239 74.8184 14.0008C74.6395 13.2778 74.55 12.5265 74.55 11.7469V5.64623H76.4283V11.7469C76.4283 12.3005 76.4786 12.8372 76.5793 13.3568C76.6911 13.8652 76.87 14.3228 77.1159 14.7295C77.3731 15.1249 77.7085 15.4469 78.1222 15.6954C78.547 15.9327 79.0669 16.0513 79.6818 16.0513Z" fill="#00FDFA"/>
<path d="M94.3721 8.47628C94.2603 8.35201 94.0981 8.22209 93.8857 8.08651C93.6733 7.93965 93.4217 7.80407 93.131 7.6798C92.8515 7.55553 92.5385 7.45385 92.1919 7.37477C91.8565 7.29568 91.5099 7.25614 91.1521 7.25614C90.3583 7.25614 89.7713 7.40301 89.3912 7.69675C89.0222 7.99048 88.8378 8.3972 88.8378 8.91689C88.8378 9.21063 88.8937 9.45352 89.0055 9.64558C89.1285 9.82634 89.3129 9.99016 89.5589 10.137C89.8049 10.2726 90.1123 10.3969 90.4813 10.5099C90.8502 10.6115 91.2807 10.7245 91.7726 10.8488C92.3764 10.9956 92.9186 11.1595 93.3994 11.3402C93.8913 11.521 94.305 11.7413 94.6404 12.0011C94.9758 12.261 95.2329 12.583 95.4118 12.9671C95.6019 13.3399 95.6969 13.7975 95.6969 14.3397C95.6969 14.9498 95.5795 15.4751 95.3447 15.9158C95.1211 16.3564 94.8081 16.7179 94.4056 17.0003C94.0143 17.2715 93.5559 17.4748 93.0304 17.6104C92.5049 17.7347 91.9403 17.7968 91.3366 17.7968C90.431 17.7968 89.5533 17.6612 88.7036 17.3901C87.8651 17.1076 87.1048 16.7009 86.4228 16.1699L87.2781 14.5431C87.4234 14.69 87.6303 14.8538 87.8986 15.0345C88.1781 15.2153 88.4968 15.3848 88.8545 15.5429C89.2235 15.6898 89.6204 15.8197 90.0452 15.9327C90.4701 16.0344 90.9117 16.0852 91.3701 16.0852C92.108 16.0852 92.6782 15.9553 93.0807 15.6954C93.4832 15.4356 93.6845 15.0515 93.6845 14.5431C93.6845 14.2381 93.6062 13.9839 93.4497 13.7805C93.3043 13.5771 93.0919 13.402 92.8124 13.2552C92.5329 13.097 92.1919 12.9558 91.7894 12.8315C91.3869 12.7072 90.9285 12.5773 90.4142 12.4417C89.8216 12.2836 89.3018 12.1198 88.8545 11.9503C88.4185 11.7695 88.0551 11.5549 87.7645 11.3063C87.4738 11.0578 87.2502 10.7697 87.0936 10.4421C86.9483 10.1031 86.8756 9.69642 86.8756 9.22192C86.8756 8.63445 86.9874 8.11476 87.211 7.66285C87.4346 7.19965 87.7365 6.81553 88.1166 6.5105C88.5079 6.19417 88.9663 5.95692 89.4918 5.79875C90.0173 5.64058 90.5875 5.5615 91.2024 5.5615C92.0074 5.5615 92.7509 5.69142 93.4329 5.95127C94.1149 6.21111 94.7131 6.53309 95.2274 6.91721L94.3721 8.47628Z" fill="#00FDFA"/>
<path d="M97.5807 17.6782V5.64623H99.459V17.6782H97.5807Z" fill="#00FDFA"/>
<path d="M104.028 9.20498V17.6782H102.15V5.64623H103.626L110.435 14.3228V5.66318H112.33V17.6782H110.77L104.028 9.20498Z" fill="#00FDFA"/>
<path d="M123.174 16.0005V17.6782H115.006V5.64623H123.023V7.32393H116.885V10.7471H122.201V12.3231H116.885V16.0005H123.174Z" fill="#00FDFA"/>
<path d="M131.909 8.47628C131.797 8.35201 131.635 8.22209 131.423 8.08651C131.211 7.93965 130.959 7.80407 130.668 7.6798C130.389 7.55553 130.076 7.45385 129.729 7.37477C129.394 7.29568 129.047 7.25614 128.689 7.25614C127.896 7.25614 127.309 7.40301 126.928 7.69675C126.559 7.99048 126.375 8.3972 126.375 8.91689C126.375 9.21063 126.431 9.45352 126.543 9.64558C126.666 9.82634 126.85 9.99016 127.096 10.137C127.342 10.2726 127.65 10.3969 128.019 10.5099C128.387 10.6115 128.818 10.7245 129.31 10.8488C129.914 10.9956 130.456 11.1595 130.937 11.3402C131.429 11.521 131.842 11.7413 132.178 12.0011C132.513 12.261 132.77 12.583 132.949 12.9671C133.139 13.3399 133.234 13.7975 133.234 14.3397C133.234 14.9498 133.117 15.4751 132.882 15.9158C132.658 16.3564 132.345 16.7179 131.943 17.0003C131.552 17.2715 131.093 17.4748 130.568 17.6104C130.042 17.7347 129.478 17.7968 128.874 17.7968C127.968 17.7968 127.091 17.6612 126.241 17.3901C125.402 17.1076 124.642 16.7009 123.96 16.1699L124.815 14.5431C124.961 14.69 125.168 14.8538 125.436 15.0345C125.715 15.2153 126.034 15.3848 126.392 15.5429C126.761 15.6898 127.158 15.8197 127.582 15.9327C128.007 16.0344 128.449 16.0852 128.907 16.0852C129.645 16.0852 130.215 15.9553 130.618 15.6954C131.02 15.4356 131.222 15.0515 131.222 14.5431C131.222 14.2381 131.143 13.9839 130.987 13.7805C130.842 13.5771 130.629 13.402 130.35 13.2552C130.07 13.097 129.729 12.9558 129.327 12.8315C128.924 12.7072 128.466 12.5773 127.951 12.4417C127.359 12.2836 126.839 12.1198 126.392 11.9503C125.956 11.7695 125.592 11.5549 125.302 11.3063C125.011 11.0578 124.787 10.7697 124.631 10.4421C124.486 10.1031 124.413 9.69642 124.413 9.22192C124.413 8.63445 124.525 8.11476 124.748 7.66285C124.972 7.19965 125.274 6.81553 125.654 6.5105C126.045 6.19417 126.504 5.95692 127.029 5.79875C127.555 5.64058 128.125 5.5615 128.74 5.5615C129.545 5.5615 130.288 5.69142 130.97 5.95127C131.652 6.21111 132.25 6.53309 132.765 6.91721L131.909 8.47628Z" fill="#00FDFA"/>
<path d="M142.162 8.47628C142.05 8.35201 141.888 8.22209 141.675 8.08651C141.463 7.93965 141.211 7.80407 140.921 7.6798C140.641 7.55553 140.328 7.45385 139.981 7.37477C139.646 7.29568 139.299 7.25614 138.942 7.25614C138.148 7.25614 137.561 7.40301 137.181 7.69675C136.812 7.99048 136.627 8.3972 136.627 8.91689C136.627 9.21063 136.683 9.45352 136.795 9.64558C136.918 9.82634 137.102 9.99016 137.348 10.137C137.594 10.2726 137.902 10.3969 138.271 10.5099C138.64 10.6115 139.07 10.7245 139.562 10.8488C140.166 10.9956 140.708 11.1595 141.189 11.3402C141.681 11.521 142.095 11.7413 142.43 12.0011C142.765 12.261 143.022 12.583 143.201 12.9671C143.391 13.3399 143.486 13.7975 143.486 14.3397C143.486 14.9498 143.369 15.4751 143.134 15.9158C142.911 16.3564 142.598 16.7179 142.195 17.0003C141.804 17.2715 141.345 17.4748 140.82 17.6104C140.294 17.7347 139.73 17.7968 139.126 17.7968C138.221 17.7968 137.343 17.6612 136.493 17.3901C135.655 17.1076 134.894 16.7009 134.212 16.1699L135.068 14.5431C135.213 14.69 135.42 14.8538 135.688 15.0345C135.968 15.2153 136.286 15.3848 136.644 15.5429C137.013 15.6898 137.41 15.8197 137.835 15.9327C138.26 16.0344 138.701 16.0852 139.16 16.0852C139.898 16.0852 140.468 15.9553 140.87 15.6954C141.273 15.4356 141.474 15.0515 141.474 14.5431C141.474 14.2381 141.396 13.9839 141.239 13.7805C141.094 13.5771 140.881 13.402 140.602 13.2552C140.322 13.097 139.981 12.9558 139.579 12.8315C139.176 12.7072 138.718 12.5773 138.204 12.4417C137.611 12.2836 137.091 12.1198 136.644 11.9503C136.208 11.7695 135.845 11.5549 135.554 11.3063C135.263 11.0578 135.04 10.7697 134.883 10.4421C134.738 10.1031 134.665 9.69642 134.665 9.22192C134.665 8.63445 134.777 8.11476 135.001 7.66285C135.224 7.19965 135.526 6.81553 135.906 6.5105C136.298 6.19417 136.756 5.95692 137.281 5.79875C137.807 5.64058 138.377 5.5615 138.992 5.5615C139.797 5.5615 140.54 5.69142 141.222 5.95127C141.904 6.21111 142.503 6.53309 143.017 6.91721L142.162 8.47628Z" fill="#00FDFA"/>
</svg>
