<svg width="18" height="15" viewBox="0 0 18 15" fill="none" xmlns="http://www.w3.org/2000/svg">
<path d="M17.0828 10.6914H6.64341C6.13815 10.6914 5.72803 10.26 5.72803 9.73332C5.72803 9.20665 6.13815 8.77529 6.64341 8.77529H17.0828C17.5893 8.77529 17.9994 9.20665 17.9994 9.73332C17.9994 10.26 17.588 10.6914 17.0828 10.6914ZM17.0828 6.2222H6.64341C6.13815 6.2222 5.72803 5.79209 5.72803 5.26417C5.72803 4.7375 6.13815 4.30614 6.64341 4.30614H17.0828C17.5893 4.30614 17.9994 4.7375 17.9994 5.26417C17.9994 5.79084 17.588 6.2222 17.0828 6.2222ZM17.0172 1.91356H1.03161C0.491639 1.91356 0.0159537 1.5148 0.000526041 0.989383C-0.00378476 0.860959 0.0184349 0.733002 0.0658627 0.613125C0.11329 0.493248 0.184957 0.383902 0.276598 0.291593C0.368239 0.199284 0.477982 0.125899 0.599295 0.0758052C0.720609 0.025711 0.851015 -6.86743e-05 0.982752 1.37392e-07H16.9684C17.5083 1.37392e-07 17.984 0.400017 17.9994 0.924177C18.0039 1.0527 17.9818 1.1808 17.9345 1.30082C17.8871 1.42084 17.8155 1.53034 17.7238 1.62278C17.6322 1.71523 17.5224 1.78873 17.401 1.8389C17.2796 1.88907 17.1491 1.91489 17.0172 1.91481V1.91356ZM4.56711 10.6763V4.32369L0.000526041 7.5L4.56711 10.6763C4.56711 10.6914 4.56711 10.6914 4.56711 10.6763ZM0.982752 13.0852H16.9684C17.5083 13.0852 17.984 13.4865 17.9994 14.0106C18.0037 14.139 17.9815 14.267 17.9341 14.3869C17.8867 14.5068 17.815 14.6161 17.7234 14.7084C17.6317 14.8007 17.522 14.8741 17.4007 14.9242C17.2793 14.9743 17.1489 15.0001 17.0172 15H1.03161C0.491639 15 0.0159537 14.6 0.000526041 14.0746C-0.00378476 13.9461 0.0184349 13.8182 0.0658627 13.6983C0.11329 13.5784 0.184957 13.4691 0.276598 13.3768C0.368239 13.2845 0.477982 13.2111 0.599295 13.161C0.720609 13.1109 0.851015 13.0851 0.982752 13.0852Z" fill="white"/>
</svg>
