<svg width="15" height="15" viewBox="0 0 15 15" fill="none" xmlns="http://www.w3.org/2000/svg">
<path fill-rule="evenodd" clip-rule="evenodd" d="M0 7.5C0 11.6421 3.35787 15 7.5 15H8.25C8.66421 15 9 14.6642 9 14.25C9 13.8358 8.66421 13.5 8.25 13.5H7.5C4.18629 13.5 1.5 10.8137 1.5 7.5C1.5 4.18627 4.18629 1.5 7.5 1.5H8.25C8.66421 1.5 9 1.16421 9 0.75C9 0.335786 8.66421 3.19481e-07 8.25 3.19481e-07H7.5C3.35787 3.19481e-07 0 3.35783 0 7.5ZM10.7197 11.0303C11.0126 11.3232 11.4874 11.3232 11.7803 11.0303L14.7803 8.03033C15.0732 7.73744 15.0732 7.26256 14.7803 6.96967L11.7803 3.96967C11.4874 3.67678 11.0126 3.67678 10.7197 3.96967C10.4268 4.26256 10.4268 4.73744 10.7197 5.03033L12.4393 6.75H5.25C4.83579 6.75 4.5 7.08579 4.5 7.5C4.5 7.91421 4.83579 8.25 5.25 8.25H12.4393L10.7197 9.96967C10.4268 10.2626 10.4268 10.7374 10.7197 11.0303Z" fill="white"/>
</svg>
