<svg width="21" height="24" viewBox="0 0 21 24" fill="none" xmlns="http://www.w3.org/2000/svg">
<path d="M8.16667 15.167H1.16667C0.857247 15.167 0.560501 15.2899 0.341709 15.5087C0.122916 15.7275 0 16.0242 0 16.3337V22.167C0 22.4764 0.122916 22.7732 0.341709 22.992C0.560501 23.2107 0.857247 23.3337 1.16667 23.3337H8.16667C8.47609 23.3337 8.77283 23.2107 8.99162 22.992C9.21042 22.7732 9.33333 22.4764 9.33333 22.167V16.3337C9.33333 16.0242 9.21042 15.7275 8.99162 15.5087C8.77283 15.2899 8.47609 15.167 8.16667 15.167Z" fill="#AEA4D9"/>
<path d="M8.16667 0H1.16667C0.857247 0 0.560501 0.122916 0.341709 0.341709C0.122916 0.560501 0 0.857247 0 1.16667V11.6667C0 11.9761 0.122916 12.2728 0.341709 12.4916C0.560501 12.7104 0.857247 12.8333 1.16667 12.8333H8.16667C8.47609 12.8333 8.77283 12.7104 8.99162 12.4916C9.21042 12.2728 9.33333 11.9761 9.33333 11.6667V1.16667C9.33333 0.857247 9.21042 0.560501 8.99162 0.341709C8.77283 0.122916 8.47609 0 8.16667 0Z" fill="#AEA4D9"/>
<path d="M19.8334 0H12.8334C12.524 0 12.2272 0.122916 12.0085 0.341709C11.7897 0.560501 11.6667 0.857247 11.6667 1.16667V7C11.6667 7.30942 11.7897 7.60617 12.0085 7.82496C12.2272 8.04375 12.524 8.16667 12.8334 8.16667H19.8334C20.1428 8.16667 20.4396 8.04375 20.6584 7.82496C20.8772 7.60617 21.0001 7.30942 21.0001 7V1.16667C21.0001 0.857247 20.8772 0.560501 20.6584 0.341709C20.4396 0.122916 20.1428 0 19.8334 0Z" fill="#AEA4D9"/>
<path d="M19.8334 10.5H12.8334C12.524 10.5 12.2272 10.6229 12.0085 10.8417C11.7897 11.0605 11.6667 11.3572 11.6667 11.6667V22.1667C11.6667 22.4761 11.7897 22.7728 12.0085 22.9916C12.2272 23.2104 12.524 23.3333 12.8334 23.3333H19.8334C20.1428 23.3333 20.4396 23.2104 20.6584 22.9916C20.8772 22.7728 21.0001 22.4761 21.0001 22.1667V11.6667C21.0001 11.3572 20.8772 11.0605 20.6584 10.8417C20.4396 10.6229 20.1428 10.5 19.8334 10.5Z" fill="#AEA4D9"/>
</svg>
