<svg width="24" height="24" viewBox="0 0 24 24" fill="none" xmlns="http://www.w3.org/2000/svg">
<path d="M12 12C12 11.2406 12.6156 10.625 13.375 10.625H21.625C22.3844 10.625 23 11.2406 23 12V21.625C23 22.3844 22.3844 23 21.625 23H13.375C12.6156 23 12 22.3844 12 21.625V12Z" stroke="#AEA4D9" stroke-width="2" stroke-linecap="round"/>
<path d="M1 2.375C1 1.61562 1.61562 1 2.375 1H6.5C7.25939 1 7.875 1.61562 7.875 2.375V21.625C7.875 22.3844 7.25939 23 6.5 23H2.375C1.61562 23 1 22.3844 1 21.625V2.375Z" stroke="#AEA4D9" stroke-width="2" stroke-linecap="round"/>
<path d="M12 2.375C12 1.61562 12.6156 1 13.375 1H21.625C22.3844 1 23 1.61562 23 2.375V5.125C23 5.88439 22.3844 6.5 21.625 6.5H13.375C12.6156 6.5 12 5.88439 12 5.125V2.375Z" stroke="#AEA4D9" stroke-width="2" stroke-linecap="round"/>
</svg>
