<svg width="85" height="85" viewBox="0 0 85 85" fill="none" xmlns="http://www.w3.org/2000/svg">
<path d="M26.5625 58.4375C29.3804 58.4375 32.0829 57.3181 34.0755 55.3255C36.0681 53.3329 37.1875 50.6304 37.1875 47.8125C37.1875 44.9946 36.0681 42.2921 34.0755 40.2995C32.0829 38.3069 29.3804 37.1875 26.5625 37.1875C23.7446 37.1875 21.0421 38.3069 19.0495 40.2995C17.0569 42.2921 15.9375 44.9946 15.9375 47.8125C15.9375 50.6304 17.0569 53.3329 19.0495 55.3255C21.0421 57.3181 23.7446 58.4375 26.5625 58.4375ZM26.5625 42.5C27.9715 42.5 29.3227 43.0597 30.319 44.056C31.3153 45.0523 31.875 46.4035 31.875 47.8125C31.875 49.2215 31.3153 50.5727 30.319 51.569C29.3227 52.5653 27.9715 53.125 26.5625 53.125C25.1535 53.125 23.8023 52.5653 22.806 51.569C21.8097 50.5727 21.25 49.2215 21.25 47.8125C21.25 46.4035 21.8097 45.0523 22.806 44.056C23.8023 43.0597 25.1535 42.5 26.5625 42.5ZM39.8438 63.75H13.2812C9.75884 63.75 6.38071 65.1493 3.88999 67.64C1.39927 70.1307 0 73.5088 0 77.0312C0 79.1447 0.839566 81.1716 2.334 82.666C3.82843 84.1604 5.85531 85 7.96875 85H45.1562C47.2697 85 49.2966 84.1604 50.791 82.666C52.2854 81.1716 53.125 79.1447 53.125 77.0312C53.125 73.5088 51.7257 70.1307 49.235 67.64C46.7443 65.1493 43.3662 63.75 39.8438 63.75ZM45.1562 79.6875H7.96875C7.26427 79.6875 6.58864 79.4076 6.0905 78.9095C5.59235 78.4114 5.3125 77.7357 5.3125 77.0312C5.3125 74.9178 6.15207 72.8909 7.6465 71.3965C9.14093 69.9021 11.1678 69.0625 13.2812 69.0625H39.8438C41.9572 69.0625 43.9841 69.9021 45.4785 71.3965C46.9729 72.8909 47.8125 74.9178 47.8125 77.0312C47.8125 77.7357 47.5326 78.4114 47.0345 78.9095C46.5364 79.4076 45.8607 79.6875 45.1562 79.6875ZM85 13.2812V39.8438C85 43.3662 83.6007 46.7443 81.11 49.235C78.6193 51.7257 75.2412 53.125 71.7188 53.125H56.8809L47.0369 62.9744C46.7897 63.2209 46.4964 63.4163 46.1738 63.5494C45.8511 63.6824 45.5053 63.7506 45.1562 63.75C44.8079 63.7514 44.4628 63.6828 44.1416 63.5481C43.6558 63.3473 43.2405 63.007 42.9483 62.57C42.6561 62.1331 42.5001 61.6194 42.5 61.0938V50.4688C42.5 49.7643 42.7799 49.0886 43.278 48.5905C43.7761 48.0924 44.4518 47.8125 45.1562 47.8125C45.8607 47.8125 46.5364 48.0924 47.0345 48.5905C47.5326 49.0886 47.8125 49.7643 47.8125 50.4688V54.6816L53.9006 48.5881C54.1478 48.3416 54.4411 48.1462 54.7637 48.0131C55.0864 47.8801 55.4322 47.8119 55.7812 47.8125H71.7188C73.8322 47.8125 75.8591 46.9729 77.3535 45.4785C78.8479 43.9841 79.6875 41.9572 79.6875 39.8438V13.2812C79.6875 11.1678 78.8479 9.14092 77.3535 7.64649C75.8591 6.15206 73.8322 5.3125 71.7188 5.3125H34.5312C32.4178 5.3125 30.3909 6.15206 28.8965 7.64649C27.4021 9.14092 26.5625 11.1678 26.5625 13.2812V29.2188C26.5625 29.9232 26.2826 30.5989 25.7845 31.097C25.2864 31.5951 24.6107 31.875 23.9062 31.875C23.2018 31.875 22.5261 31.5951 22.028 31.097C21.5299 30.5989 21.25 29.9232 21.25 29.2188V13.2812C21.25 9.75884 22.6493 6.38071 25.14 3.88999C27.6307 1.39927 31.0088 0 34.5312 0L71.7188 0C75.2412 0 78.6193 1.39927 81.11 3.88999C83.6007 6.38071 85 9.75884 85 13.2812ZM55.7812 10.625V23.9062H69.0625C69.767 23.9062 70.4426 24.1861 70.9408 24.6842C71.4389 25.1824 71.7188 25.858 71.7188 26.5625C71.7188 27.267 71.4389 27.9426 70.9408 28.4408C70.4426 28.9389 69.767 29.2188 69.0625 29.2188H55.7812V42.5C55.7812 43.2045 55.5014 43.8801 55.0033 44.3783C54.5051 44.8764 53.8295 45.1562 53.125 45.1562C52.4205 45.1562 51.7449 44.8764 51.2467 44.3783C50.7486 43.8801 50.4688 43.2045 50.4688 42.5V29.2188H37.1875C36.483 29.2188 35.8074 28.9389 35.3092 28.4408C34.8111 27.9426 34.5312 27.267 34.5312 26.5625C34.5312 25.858 34.8111 25.1824 35.3092 24.6842C35.8074 24.1861 36.483 23.9062 37.1875 23.9062H50.4688V10.625C50.4688 9.92052 50.7486 9.24489 51.2467 8.74675C51.7449 8.2486 52.4205 7.96875 53.125 7.96875C53.8295 7.96875 54.5051 8.2486 55.0033 8.74675C55.5014 9.24489 55.7812 9.92052 55.7812 10.625Z" fill="#FE664F"/>
</svg>
