<svg width="22" height="23" viewBox="0 0 22 23" fill="none" xmlns="http://www.w3.org/2000/svg">
<path d="M1.63709 0.00148038C1.57732 -0.00389347 1.51715 0.00541168 1.4617 0.028604C1.40625 0.0517963 1.35716 0.0881892 1.31861 0.134686C0.0503803 1.65361 -0.342032 5.76956 0.311988 7.83184C0.533191 8.51402 0.583989 9.24095 0.459854 9.9478C0.333789 10.6474 0.204881 11.4926 0.204881 12.0772C0.204881 18.1078 5.03989 23 11.0009 23C16.963 23 21.7951 18.1107 21.7951 12.0762C21.7951 11.4888 21.6691 10.6454 21.5392 9.94684C21.4155 9.24022 21.4666 8.51365 21.688 7.83184C22.342 5.77147 21.9496 1.65361 20.6814 0.134686C20.6421 0.0888642 20.5927 0.052992 20.5372 0.0299464C20.4817 0.00690076 20.4217 -0.0026768 20.3619 0.0019819C20.3021 0.0066406 20.2442 0.0254059 20.1928 0.0567726C20.1415 0.0881393 20.0981 0.131234 20.0662 0.182601L18.5032 2.66463C18.317 2.90376 18.0488 3.06353 17.7516 3.11233C17.4545 3.16113 17.15 3.09541 16.8985 2.92816C15.1458 1.7672 13.0954 1.15025 11 1.15337C8.82278 1.15337 6.79626 1.80694 5.1015 2.92816C4.84973 3.09487 4.54533 3.16018 4.2483 3.11122C3.95127 3.06226 3.68314 2.90259 3.49678 2.66367L1.93282 0.182601C1.9007 0.131384 1.85728 0.0883799 1.80598 0.0569574C1.75467 0.0255349 1.69687 0.00654693 1.63709 0.00148038ZM11 3.6469C13.2167 3.6507 15.3415 4.54296 16.9087 6.12808C18.4758 7.7132 19.3573 9.86185 19.3601 12.103C19.3563 16.7643 15.6075 20.5582 11 20.5582C6.39248 20.5582 2.64371 16.7643 2.64371 12.1021C2.64494 10.501 3.09511 8.93312 3.942 7.58024C4.78889 6.22737 5.99779 5.14496 7.42848 4.45859C8.54412 3.92184 9.76449 3.64449 11 3.6469ZM8.69292 8.3685C8.65082 8.36866 8.60949 8.37999 8.57307 8.40134C8.53664 8.4227 8.50639 8.45334 8.48534 8.4902C8.46437 8.52754 8.45358 8.56984 8.45408 8.61278C8.45458 8.65571 8.46635 8.69774 8.48818 8.73457L10.2398 11.7159L7.88724 15.345C7.86373 15.3818 7.85037 15.4244 7.84853 15.4682C7.8467 15.512 7.85646 15.5555 7.87682 15.5942C7.89709 15.6328 7.92738 15.6652 7.96444 15.6878C8.0015 15.7105 8.04395 15.7225 8.08724 15.7226H9.8493C9.88939 15.7222 9.92877 15.7119 9.96398 15.6925C9.99918 15.6731 10.0291 15.6453 10.0512 15.6114L11.3223 13.6009L12.4616 15.5999C12.4824 15.6373 12.5127 15.6684 12.5493 15.69C12.586 15.7115 12.6277 15.7228 12.6701 15.7226H14.4066C14.4489 15.723 14.4906 15.7119 14.5271 15.6902C14.5637 15.6686 14.5938 15.6374 14.6142 15.5999C14.6384 15.5641 14.6518 15.522 14.6528 15.4786C14.6539 15.4352 14.6424 15.3925 14.6199 15.3555L12.4843 11.6105L10.6521 8.48733C10.6309 8.45066 10.6004 8.42034 10.5637 8.39947C10.5271 8.37859 10.4857 8.36791 10.4436 8.3685H8.69292Z" fill="#AEA4D9"/>
</svg>
