<svg width="86" height="86" viewBox="0 0 86 86" fill="none" xmlns="http://www.w3.org/2000/svg">
<path d="M26.875 59.125C29.7261 59.125 32.4604 57.9924 34.4764 55.9764C36.4924 53.9604 37.625 51.2261 37.625 48.375C37.625 45.5239 36.4924 42.7896 34.4764 40.7736C32.4604 38.7576 29.7261 37.625 26.875 37.625C24.0239 37.625 21.2896 38.7576 19.2736 40.7736C17.2576 42.7896 16.125 45.5239 16.125 48.375C16.125 51.2261 17.2576 53.9604 19.2736 55.9764C21.2896 57.9924 24.0239 59.125 26.875 59.125ZM26.875 43C28.3005 43 29.6677 43.5663 30.6757 44.5743C31.6837 45.5823 32.25 46.9495 32.25 48.375C32.25 49.8005 31.6837 51.1677 30.6757 52.1757C29.6677 53.1837 28.3005 53.75 26.875 53.75C25.4495 53.75 24.0823 53.1837 23.0743 52.1757C22.0663 51.1677 21.5 49.8005 21.5 48.375C21.5 46.9495 22.0663 45.5823 23.0743 44.5743C24.0823 43.5663 25.4495 43 26.875 43ZM40.3125 64.5H13.4375C9.87365 64.5 6.45577 65.9157 3.93575 68.4358C1.41573 70.9558 0 74.3736 0 77.9375C0 80.0758 0.849444 82.1265 2.36146 83.6385C3.87347 85.1506 5.92419 86 8.0625 86H45.6875C47.8258 86 49.8765 85.1506 51.3885 83.6385C52.9006 82.1265 53.75 80.0758 53.75 77.9375C53.75 74.3736 52.3343 70.9558 49.8142 68.4358C47.2942 65.9157 43.8763 64.5 40.3125 64.5ZM45.6875 80.625H8.0625C7.34973 80.625 6.66615 80.3419 6.16215 79.8379C5.65814 79.3338 5.375 78.6503 5.375 77.9375C5.375 75.7992 6.22444 73.7485 7.73646 72.2365C9.24847 70.7244 11.2992 69.875 13.4375 69.875H40.3125C42.4508 69.875 44.5015 70.7244 46.0135 72.2365C47.5256 73.7485 48.375 75.7992 48.375 77.9375C48.375 78.6503 48.0919 79.3338 47.5879 79.8379C47.0838 80.3419 46.4003 80.625 45.6875 80.625ZM72.5625 0H34.9375C31.3737 0 27.9558 1.41573 25.4358 3.93575C22.9157 6.45577 21.5 9.87365 21.5 13.4375V29.5625C21.5 30.2753 21.7831 30.9588 22.2871 31.4628C22.7912 31.9669 23.4747 32.25 24.1875 32.25C24.9003 32.25 25.5838 31.9669 26.0879 31.4628C26.5919 30.9588 26.875 30.2753 26.875 29.5625V13.4375C26.875 11.2992 27.7244 9.24846 29.2365 7.73645C30.7485 6.22444 32.7992 5.375 34.9375 5.375H51.0625V10.75C48.9242 10.75 46.8735 11.5994 45.3615 13.1115C43.8494 14.6235 43 16.6742 43 18.8125C43 20.9508 43.8494 23.0015 45.3615 24.5135C46.8735 26.0256 48.9242 26.875 51.0625 26.875V32.25H45.6875C44.9747 32.25 44.2912 32.5331 43.7871 33.0372C43.2831 33.5412 43 34.2247 43 34.9375C43 35.6503 43.2831 36.3338 43.7871 36.8378C44.2912 37.3419 44.9747 37.625 45.6875 37.625H51.0625V40.3125C51.0625 41.0253 51.3456 41.7088 51.8496 42.2128C52.3537 42.7169 53.0372 43 53.75 43C54.4628 43 55.1463 42.7169 55.6504 42.2128C56.1544 41.7088 56.4375 41.0253 56.4375 40.3125V37.625C58.5758 37.625 60.6265 36.7756 62.1385 35.2635C63.6506 33.7515 64.5 31.7008 64.5 29.5625C64.5 27.4242 63.6506 25.3735 62.1385 23.8615C60.6265 22.3494 58.5758 21.5 56.4375 21.5V16.125H61.8125C62.5253 16.125 63.2088 15.8419 63.7129 15.3378C64.2169 14.8338 64.5 14.1503 64.5 13.4375C64.5 12.7247 64.2169 12.0412 63.7129 11.5372C63.2088 11.0331 62.5253 10.75 61.8125 10.75H56.4375V5.375H72.5625C74.7008 5.375 76.7515 6.22444 78.2635 7.73645C79.7756 9.24846 80.625 11.2992 80.625 13.4375V40.3125C80.625 42.4508 79.7756 44.5015 78.2635 46.0135C76.7515 47.5256 74.7008 48.375 72.5625 48.375H56.4375C56.0843 48.3744 55.7345 48.4434 55.408 48.578C55.0815 48.7127 54.7848 48.9103 54.5347 49.1597L48.375 55.3249V51.0625C48.375 50.3497 48.0919 49.6662 47.5879 49.1621C47.0838 48.6581 46.4003 48.375 45.6875 48.375C44.9747 48.375 44.2912 48.6581 43.7871 49.1621C43.2831 49.6662 43 50.3497 43 51.0625V61.8125C43.0001 62.3443 43.1579 62.8641 43.4536 63.3062C43.7493 63.7482 44.1694 64.0926 44.6609 64.2957C44.9859 64.432 45.3351 64.5014 45.6875 64.5C46.0407 64.5006 46.3905 64.4316 46.717 64.297C47.0435 64.1623 47.3402 63.9647 47.5903 63.7153L57.5501 53.75H72.5625C76.1264 53.75 79.5442 52.3343 82.0642 49.8142C84.5843 47.2942 86 43.8763 86 40.3125V13.4375C86 9.87365 84.5843 6.45577 82.0642 3.93575C79.5442 1.41573 76.1264 0 72.5625 0ZM59.125 29.5625C59.125 30.2753 58.8419 30.9588 58.3379 31.4628C57.8338 31.9669 57.1503 32.25 56.4375 32.25V26.875C57.1503 26.875 57.8338 27.1581 58.3379 27.6622C58.8419 28.1662 59.125 28.8497 59.125 29.5625ZM51.0625 21.5C50.3497 21.5 49.6662 21.2169 49.1621 20.7128C48.6581 20.2088 48.375 19.5253 48.375 18.8125C48.375 18.0997 48.6581 17.4162 49.1621 16.9122C49.6662 16.4081 50.3497 16.125 51.0625 16.125V21.5Z" fill="#FE664F"/>
</svg>
