<svg width="18" height="22" viewBox="0 0 18 22" fill="none" xmlns="http://www.w3.org/2000/svg">
<path d="M16.2 9.45703H1.8C0.81 9.45703 0 10.267 0 11.257V19.807C0 20.797 0.81 21.607 1.8 21.607H16.2C17.19 21.607 18 20.797 18 19.807V11.257C18 10.267 17.19 9.45703 16.2 9.45703ZM11.25 19.132C10.575 19.582 9.81 19.807 9 19.807C8.73 19.807 8.46 19.762 8.19 19.717C7.11 19.492 6.21 18.907 5.625 18.007L7.11 17.017C7.425 17.512 7.965 17.872 8.55 17.962C9.135 18.097 9.72 17.962 10.26 17.602C11.295 16.927 11.565 15.487 10.89 14.497C10.575 14.002 10.035 13.642 9.45 13.552C8.865 13.417 8.28 13.552 7.74 13.912C7.605 14.002 7.515 14.092 7.425 14.182L9 15.757H4.95V11.707L6.12 12.877C6.3 12.697 6.525 12.517 6.705 12.382C7.605 11.797 8.685 11.572 9.765 11.752C10.845 11.977 11.745 12.562 12.33 13.462C13.59 15.352 13.095 17.872 11.25 19.132Z" fill="#AEA4D9"/>
<path d="M2.25005 7.65706H4.05005C4.32005 7.65706 4.50005 7.52206 4.50005 7.25206V7.20706C4.50005 4.64206 6.70505 2.52706 9.31505 2.70706C11.7001 2.88706 13.5001 4.95706 13.5001 7.38706V7.25206C13.5001 7.52206 13.6801 7.65706 13.9501 7.65706H15.7501C16.0201 7.65706 16.2001 7.52206 16.2001 7.25206V7.20706C16.2001 3.11206 12.7801 -0.17294 8.64005 0.00706022C4.81505 0.18706 1.89005 3.42706 1.80005 7.25206C1.84505 7.47706 2.02505 7.65706 2.25005 7.65706Z" fill="#AEA4D9"/>
</svg>
